<svg width="115" height="116" viewBox="0 0 115 116" fill="none" xmlns="http://www.w3.org/2000/svg">
<path d="M91 66.5C91 84.4493 76.4493 99 58.5 99C40.5507 99 26 84.4493 26 66.5C26 48.5507 40.5507 34 58.5 34C76.4493 34 91 48.5507 91 66.5Z" fill="url(#paint0_linear_427_13)" fill-opacity="0.95"/>
<path d="M46 88.5C46 100.926 35.9264 111 23.5 111C11.0736 111 1 100.926 1 88.5C1 76.0736 11.0736 66 23.5 66C35.9264 66 46 76.0736 46 88.5Z" fill="url(#paint1_linear_427_13)"/>
<path d="M114 92.5C114 104.926 103.926 115 91.5 115C79.0736 115 69 104.926 69 92.5C69 80.0736 79.0736 70 91.5 70C103.926 70 114 80.0736 114 92.5Z" fill="url(#paint2_linear_427_13)"/>
<path d="M91 23.5C91 35.9264 80.9264 46 68.5 46C56.0736 46 46 35.9264 46 23.5C46 11.0736 56.0736 1 68.5 1C80.9264 1 91 11.0736 91 23.5Z" fill="url(#paint3_linear_427_13)"/>
<path d="M68.5 0.5C81.2025 0.5 91.5 10.7975 91.5 23.5C91.5 31.4734 87.4419 38.4978 81.2793 42.624C87.5763 48.6335 91.5 57.1084 91.5 66.5C91.5 67.5117 91.4514 68.5125 91.3623 69.501C91.4082 69.5007 91.4541 69.5 91.5 69.5C104.203 69.5 114.5 79.7975 114.5 92.5C114.5 105.203 104.203 115.5 91.5 115.5C80.6068 115.5 71.4829 107.927 69.1045 97.7588C65.7762 98.8875 62.2097 99.5 58.5 99.5C53.6977 99.5 49.1355 98.4733 45.0195 96.6289C41.7351 105.319 33.3404 111.5 23.5 111.5C10.7975 111.5 0.5 101.203 0.5 88.5C0.5 75.7975 10.7975 65.5 23.5 65.5C24.1782 65.5 24.8494 65.5314 25.5127 65.5889C25.9023 51.2167 35.4808 39.1382 48.5859 35.0156C46.6234 31.6291 45.5 27.6957 45.5 23.5C45.5 10.7975 55.7975 0.5 68.5 0.5Z" stroke="white" stroke-opacity="0.2"/>
<defs>
<linearGradient id="paint0_linear_427_13" x1="58.5" y1="34" x2="58.5" y2="99" gradientUnits="userSpaceOnUse">
<stop stop-color="#C47DE8"/>
<stop offset="0.5" stop-color="#6290E7"/>
<stop offset="1" stop-color="#45D9F5"/>
</linearGradient>
<linearGradient id="paint1_linear_427_13" x1="24" y1="58.5" x2="24" y2="116" gradientUnits="userSpaceOnUse">
<stop stop-color="#6290E7"/>
<stop offset="1" stop-color="#45D9F5"/>
</linearGradient>
<linearGradient id="paint2_linear_427_13" x1="92" y1="62" x2="92" y2="120.5" gradientUnits="userSpaceOnUse">
<stop stop-color="#C47DE8"/>
<stop offset="1" stop-color="#45D9F5"/>
</linearGradient>
<linearGradient id="paint3_linear_427_13" x1="68.5" y1="1" x2="68.5" y2="46" gradientUnits="userSpaceOnUse">
<stop stop-color="#45D9F5"/>
<stop offset="1" stop-color="#C47DE8"/>
</linearGradient>
</defs>
</svg>
